<svg version="1.1" id="Layer_1" xmlns="http://www.w3.org/2000/svg" xmlns:xlink="http://www.w3.org/1999/xlink" x="0px" y="0px"
	 width="100%" viewBox="0 0 375 155" enable-background="new 0 0 375 155" xml:space="preserve">
<path fill="#FEFEFE" opacity="1.000000" stroke="none" 
	d="
M262.000000,156.000000 
	C174.666687,156.000000 87.833374,156.000000 1.000046,156.000000 
	C1.000031,104.333366 1.000031,52.666733 1.000015,1.000074 
	C125.999939,1.000050 250.999878,1.000050 375.999878,1.000025 
	C375.999908,52.666592 375.999908,104.333183 375.999939,155.999878 
	C338.166656,156.000000 300.333344,156.000000 262.000000,156.000000 
M45.622910,35.990505 
	C23.655312,41.087341 8.336832,57.179638 5.256942,78.395576 
	C2.332207,98.542717 12.842272,119.492844 30.771318,129.254379 
	C50.079151,139.766602 72.069809,137.170212 89.234909,122.240074 
	C101.668015,111.425797 114.010284,100.507095 126.392731,89.634583 
	C130.920242,85.659149 130.902252,84.976990 126.216446,80.863426 
	C114.082077,70.210930 101.900017,59.612019 89.833221,48.883484 
	C77.369408,37.801952 63.027885,33.213482 45.622910,35.990505 
M149.211044,101.223442 
	C157.171509,108.796028 164.993652,104.707031 172.959579,100.629646 
	C173.803757,105.712524 176.927948,105.079254 179.774124,104.342171 
	C179.774124,95.096748 179.865814,86.299660 179.745621,77.505463 
	C179.646225,70.232811 176.451889,66.192535 169.810257,65.332085 
	C161.590530,64.267181 154.566284,67.027962 148.232880,72.983315 
	C149.750854,74.262772 150.951797,75.274994 152.221985,76.345596 
	C157.863358,72.427490 163.529266,68.640091 170.273743,71.918793 
	C172.095779,72.804543 172.672623,76.251694 173.715500,78.314423 
	C166.683197,80.588097 160.652435,81.985077 155.108643,84.468903 
	C148.019165,87.645248 146.314590,92.903610 149.211044,101.223442 
M265.736053,92.413139 
	C267.798065,99.917694 272.509003,104.483055 280.388947,105.292267 
	C287.701691,106.043221 293.674957,103.697510 298.151825,97.107498 
	C296.699127,95.970497 295.483490,95.019035 294.180176,93.998955 
	C290.088776,99.280746 285.148804,101.405487 279.027771,99.468964 
	C274.280975,97.967224 271.925629,93.868294 271.784210,87.147202 
	C280.476929,87.147202 289.178253,87.147202 298.143951,87.147202 
	C298.143951,84.766228 298.280945,82.968018 298.121094,81.196594 
	C297.262817,71.686256 291.772247,65.732529 283.424347,65.152504 
	C275.078125,64.572601 267.491943,70.062180 265.727814,78.793312 
	C264.895660,82.911850 265.523773,87.325424 265.736053,92.413139 
M351.277100,65.495575 
	C344.532990,67.532425 341.661835,70.622276 341.617371,75.891037 
	C341.573792,81.055275 344.151611,84.021645 350.748993,86.161888 
	C353.751251,87.135834 356.857300,87.792595 359.851501,88.787987 
	C362.808167,89.770905 365.577423,91.184174 365.045013,95.036850 
	C364.528320,98.775627 361.466400,100.192863 358.490051,99.834061 
	C353.438019,99.225037 348.501648,97.656525 342.599335,96.276848 
	C342.515564,96.371902 341.463013,97.566360 340.437012,98.730652 
	C346.725464,105.537216 359.202881,107.823486 366.193420,102.850594 
	C368.793793,101.000778 370.774933,97.190689 371.414215,93.953728 
	C372.188904,90.030945 370.017853,86.387901 365.956390,84.813225 
	C362.097931,83.317268 358.064636,82.277809 354.132904,80.963722 
	C351.158478,79.969589 347.393402,79.277611 348.088989,75.022911 
	C348.781616,70.786469 352.645172,70.181519 355.929810,70.707169 
	C359.723419,71.314255 363.344788,72.997704 367.412201,74.335930 
	C368.078857,73.382706 368.993042,72.075615 369.927582,70.739380 
	C364.708282,65.704163 358.636200,64.729424 351.277100,65.495575 
M322.756012,105.186180 
	C330.594910,103.798126 334.544434,100.462463 334.971466,94.869362 
	C335.450104,88.600739 332.483093,85.256859 324.180603,82.757210 
	C321.316010,81.894768 318.228455,81.481773 315.631714,80.121132 
	C313.838348,79.181480 312.712769,76.967438 311.288757,75.322914 
	C313.050385,73.816162 314.862823,70.991119 316.563812,71.056694 
	C321.154205,71.233650 325.697174,72.641670 331.180145,73.746887 
	C331.309082,73.581833 332.285370,72.331940 333.491089,70.788322 
	C327.279816,65.184776 320.432159,63.976410 312.905060,66.048477 
	C308.300079,67.316154 305.424805,70.405769 305.057037,75.291481 
	C304.683044,80.259842 307.180054,83.594482 311.751923,85.227974 
	C315.657623,86.623436 319.900879,87.250763 323.564301,89.080009 
	C325.691162,90.142006 326.968842,92.904663 328.628632,94.902046 
	C326.596161,96.560074 324.495728,99.683174 322.544373,99.592659 
	C317.351562,99.351807 312.222992,97.726410 307.068878,96.651550 
	C307.089844,96.124100 307.110809,95.596642 307.131805,95.069183 
	C306.037354,96.232391 304.942932,97.395599 303.668518,98.750076 
	C308.763519,104.449905 315.033447,105.730469 322.756012,105.186180 
M256.107941,77.563843 
	C258.653839,76.838821 259.608215,75.811737 257.985748,73.011932 
	C252.068893,62.801525 236.673264,62.402805 229.918610,72.425743 
	C225.013901,79.703613 225.132919,91.804688 230.341705,98.840096 
	C234.386749,104.303650 239.972977,106.169090 246.601013,105.239799 
	C253.024750,104.339142 256.812256,100.396980 259.467255,94.339149 
	C257.448517,93.640663 255.818481,93.076668 254.089996,92.478607 
	C251.617783,97.468781 248.136841,101.018349 242.939301,99.669060 
	C239.813797,98.857674 235.559509,96.180946 234.867371,93.541451 
	C233.547302,88.507271 233.778198,82.802742 234.579620,77.562210 
	C235.183395,73.613983 238.757034,71.317719 242.971619,70.847771 
	C247.019089,70.396469 249.983826,72.143921 252.349075,75.347984 
	C253.105957,76.373260 254.375107,77.020363 256.107941,77.563843 
M189.073944,93.167923 
	C192.630051,101.692581 198.339157,105.904152 205.875809,105.562561 
	C213.256989,105.228020 218.251785,101.459267 220.655182,94.225044 
	C219.169693,93.631004 217.669861,93.031227 216.034058,92.377068 
	C215.351135,93.363518 214.765625,94.135063 214.258194,94.954926 
	C211.920547,98.732025 208.567444,100.538040 204.149490,99.858261 
	C199.763290,99.183365 196.808136,96.510071 195.853058,92.248528 
	C195.138535,89.060303 194.789230,85.674950 194.989807,82.421288 
	C195.387680,75.966980 198.600998,71.928535 203.588226,70.991570 
	C209.244324,69.928932 212.782867,72.748505 215.168381,77.558304 
	C215.280853,77.785095 215.729996,77.844917 216.359909,78.141342 
	C217.731903,77.503433 219.302170,76.773354 220.867065,76.045769 
	C217.142471,67.898384 211.861084,64.506630 204.367081,65.142426 
	C196.600266,65.801361 190.417358,70.732002 188.992889,78.560028 
	C188.180756,83.022964 188.870300,87.759171 189.073944,93.167923 
z"/>
<path fill="#E11D44" opacity="1.000000" stroke="none" 
	d="
M46.049629,35.927387 
	C63.027885,33.213482 77.369408,37.801952 89.833221,48.883484 
	C101.900017,59.612019 114.082077,70.210930 126.216446,80.863426 
	C130.902252,84.976990 130.920242,85.659149 126.392731,89.634583 
	C114.010284,100.507095 101.668015,111.425797 89.234909,122.240074 
	C72.069809,137.170212 50.079151,139.766602 30.771318,129.254379 
	C12.842272,119.492844 2.332207,98.542717 5.256942,78.395576 
	C8.336832,57.179638 23.655312,41.087341 46.049629,35.927387 
M32.439201,59.061268 
	C32.237129,59.349255 32.035061,59.637238 31.385305,60.029083 
	C31.093332,60.189487 30.926144,60.434902 30.356258,60.962357 
	C30.159359,61.271652 29.962461,61.580948 29.329502,62.076393 
	C29.077036,62.301960 28.952734,62.584007 28.467813,63.104553 
	C28.325115,63.403439 28.182417,63.702328 27.516304,64.444519 
	C22.640533,70.553192 20.484285,77.652771 20.399927,85.330780 
	C20.235973,100.253151 30.388262,113.979813 44.688175,118.520020 
	C59.365162,123.179932 75.463120,117.442757 84.143539,104.458443 
	C92.509880,91.943947 91.681023,75.255966 82.107277,63.460766 
	C72.365120,51.458084 56.354073,47.418076 41.527428,53.281097 
	C41.191124,53.385860 40.985069,53.610264 40.419113,54.010078 
	C40.419113,54.010078 40.001019,54.271896 39.509136,54.225063 
	C39.167263,54.347324 38.957710,54.585854 38.399891,55.019379 
	C38.399891,55.019379 38.000702,55.298321 37.532234,55.277584 
	C37.203701,55.400646 37.020267,55.636566 36.381493,56.141819 
	C35.592869,56.785175 34.804249,57.428528 33.493286,58.132431 
	C33.307270,58.408932 33.121254,58.685432 32.996269,58.996429 
	C32.996269,58.996429 32.963432,58.934494 32.439201,59.061268 
z"/>
<path fill="#646465" opacity="1.000000" stroke="none" 
	d="
M149.019119,100.895889 
	C146.314590,92.903610 148.019165,87.645248 155.108643,84.468903 
	C160.652435,81.985077 166.683197,80.588097 173.715500,78.314423 
	C172.672623,76.251694 172.095779,72.804543 170.273743,71.918793 
	C163.529266,68.640091 157.863358,72.427490 152.221985,76.345596 
	C150.951797,75.274994 149.750854,74.262772 148.232880,72.983315 
	C154.566284,67.027962 161.590530,64.267181 169.810257,65.332085 
	C176.451889,66.192535 179.646225,70.232811 179.745621,77.505463 
	C179.865814,86.299660 179.774124,95.096748 179.774124,104.342171 
	C176.927948,105.079254 173.803757,105.712524 172.959579,100.629646 
	C164.993652,104.707031 157.171509,108.796028 149.019119,100.895889 
M173.196289,87.684517 
	C173.075470,86.556313 172.954636,85.428116 172.728012,83.312080 
	C167.355255,85.277977 162.188705,86.659393 157.588715,89.106010 
	C155.787903,90.063797 154.533661,93.378319 154.428070,95.683517 
	C154.367126,97.013969 156.877121,99.255737 158.606064,99.737419 
	C166.133270,101.834496 173.167969,96.260033 173.196289,87.684517 
z"/>
<path fill="#606062" opacity="1.000000" stroke="none" 
	d="
M265.613159,92.009232 
	C265.523773,87.325424 264.895660,82.911850 265.727814,78.793312 
	C267.491943,70.062180 275.078125,64.572601 283.424347,65.152504 
	C291.772247,65.732529 297.262817,71.686256 298.121094,81.196594 
	C298.280945,82.968018 298.143951,84.766228 298.143951,87.147202 
	C289.178253,87.147202 280.476929,87.147202 271.784210,87.147202 
	C271.925629,93.868294 274.280975,97.967224 279.027771,99.468964 
	C285.148804,101.405487 290.088776,99.280746 294.180176,93.998955 
	C295.483490,95.019035 296.699127,95.970497 298.151825,97.107498 
	C293.674957,103.697510 287.701691,106.043221 280.388947,105.292267 
	C272.509003,104.483055 267.798065,99.917694 265.613159,92.009232 
M275.724854,73.080101 
	C274.194763,75.770210 272.664703,78.460312 270.841492,81.665817 
	C278.790405,81.665817 285.334442,81.665817 291.899963,81.665817 
	C290.966187,71.742416 284.835083,68.298225 275.724854,73.080101 
z"/>
<path fill="#626263" opacity="1.000000" stroke="none" 
	d="
M351.686340,65.407349 
	C358.636200,64.729424 364.708282,65.704163 369.927582,70.739380 
	C368.993042,72.075615 368.078857,73.382706 367.412201,74.335930 
	C363.344788,72.997704 359.723419,71.314255 355.929810,70.707169 
	C352.645172,70.181519 348.781616,70.786469 348.088989,75.022911 
	C347.393402,79.277611 351.158478,79.969589 354.132904,80.963722 
	C358.064636,82.277809 362.097931,83.317268 365.956390,84.813225 
	C370.017853,86.387901 372.188904,90.030945 371.414215,93.953728 
	C370.774933,97.190689 368.793793,101.000778 366.193420,102.850594 
	C359.202881,107.823486 346.725464,105.537216 340.437012,98.730652 
	C341.463013,97.566360 342.515564,96.371902 342.599335,96.276848 
	C348.501648,97.656525 353.438019,99.225037 358.490051,99.834061 
	C361.466400,100.192863 364.528320,98.775627 365.045013,95.036850 
	C365.577423,91.184174 362.808167,89.770905 359.851501,88.787987 
	C356.857300,87.792595 353.751251,87.135834 350.748993,86.161888 
	C344.151611,84.021645 341.573792,81.055275 341.617371,75.891037 
	C341.661835,70.622276 344.532990,67.532425 351.686340,65.407349 
z"/>
<path fill="#626263" opacity="1.000000" stroke="none" 
	d="
M322.349548,105.214996 
	C315.033447,105.730469 308.763519,104.449905 303.668518,98.750076 
	C304.942932,97.395599 306.037354,96.232391 307.131805,95.069183 
	C307.110809,95.596642 307.089844,96.124100 307.068878,96.651550 
	C312.222992,97.726410 317.351562,99.351807 322.544373,99.592659 
	C324.495728,99.683174 326.596161,96.560074 328.628632,94.902039 
	C326.968842,92.904663 325.691162,90.142006 323.564301,89.080009 
	C319.900879,87.250763 315.657623,86.623436 311.751923,85.227974 
	C307.180054,83.594482 304.683044,80.259842 305.057037,75.291481 
	C305.424805,70.405769 308.300079,67.316154 312.905060,66.048477 
	C320.432159,63.976410 327.279816,65.184776 333.491089,70.788322 
	C332.285370,72.331940 331.309082,73.581833 331.180145,73.746887 
	C325.697174,72.641670 321.154205,71.233650 316.563812,71.056694 
	C314.862823,70.991119 313.050385,73.816162 311.288757,75.322906 
	C312.712769,76.967438 313.838348,79.181480 315.631714,80.121132 
	C318.228455,81.481773 321.316010,81.894768 324.180603,82.757210 
	C332.483093,85.256859 335.450104,88.600739 334.971466,94.869362 
	C334.544434,100.462463 330.594910,103.798126 322.349548,105.214996 
z"/>
<path fill="#616162" opacity="1.000000" stroke="none" 
	d="
M255.758911,77.702164 
	C254.375107,77.020363 253.105957,76.373260 252.349075,75.347984 
	C249.983826,72.143921 247.019089,70.396469 242.971619,70.847771 
	C238.757034,71.317719 235.183395,73.613983 234.579620,77.562210 
	C233.778198,82.802742 233.547302,88.507271 234.867371,93.541451 
	C235.559509,96.180946 239.813797,98.857674 242.939301,99.669060 
	C248.136841,101.018349 251.617783,97.468781 254.089996,92.478607 
	C255.818481,93.076668 257.448517,93.640663 259.467255,94.339149 
	C256.812256,100.396980 253.024750,104.339142 246.601013,105.239799 
	C239.972977,106.169090 234.386749,104.303650 230.341705,98.840096 
	C225.132919,91.804688 225.013901,79.703613 229.918610,72.425743 
	C236.673264,62.402805 252.068893,62.801525 257.985748,73.011932 
	C259.608215,75.811737 258.653839,76.838821 255.758911,77.702164 
z"/>
<path fill="#636363" opacity="1.000000" stroke="none" 
	d="
M188.978806,92.770126 
	C188.870300,87.759171 188.180756,83.022964 188.992889,78.560028 
	C190.417358,70.732002 196.600266,65.801361 204.367081,65.142426 
	C211.861084,64.506630 217.142471,67.898384 220.867065,76.045769 
	C219.302170,76.773354 217.731903,77.503433 216.359909,78.141342 
	C215.729996,77.844917 215.280853,77.785095 215.168381,77.558304 
	C212.782867,72.748505 209.244324,69.928932 203.588226,70.991570 
	C198.600998,71.928535 195.387680,75.966980 194.989807,82.421288 
	C194.789230,85.674950 195.138535,89.060303 195.853058,92.248528 
	C196.808136,96.510071 199.763290,99.183365 204.149490,99.858261 
	C208.567444,100.538040 211.920547,98.732025 214.258194,94.954926 
	C214.765625,94.135063 215.351135,93.363518 216.034058,92.377068 
	C217.669861,93.031227 219.169693,93.631004 220.655182,94.225044 
	C218.251785,101.459267 213.256989,105.228020 205.875809,105.562561 
	C198.339157,105.904152 192.630051,101.692581 188.978806,92.770126 
z"/>
<path fill="#FEFCFC" opacity="1.000000" stroke="none" 
	d="
M34.015625,58.071884 
	C34.804249,57.428528 35.592869,56.785175 36.900635,56.035912 
	C37.713810,55.811775 37.907455,55.601215 38.000702,55.298321 
	C38.000702,55.298321 38.399891,55.019379 38.874249,54.964302 
	C39.667217,54.800323 39.884689,54.587879 40.001019,54.271896 
	C40.001019,54.271896 40.419113,54.010078 40.889709,53.974316 
	C41.671627,53.844242 41.884628,53.644882 41.999306,53.340469 
	C56.354073,47.418076 72.365120,51.458084 82.107277,63.460766 
	C91.681023,75.255966 92.509880,91.943947 84.143539,104.458443 
	C75.463120,117.442757 59.365162,123.179932 44.688175,118.520020 
	C30.388262,113.979813 20.235973,100.253151 20.399927,85.330780 
	C20.484285,77.652771 22.640533,70.553192 28.010708,64.121040 
	C28.655609,63.505886 28.806103,63.214211 28.956596,62.922539 
	C28.952734,62.584007 29.077036,62.301960 29.831432,61.912724 
	C30.516819,61.421143 30.700279,61.093231 30.883736,60.765320 
	C30.926144,60.434902 31.093332,60.189487 31.877754,59.921890 
	C32.567944,59.521297 32.765690,59.227894 32.963432,58.934494 
	C32.963432,58.934494 32.996269,58.996429 33.208839,58.920654 
	C33.733978,58.675236 33.932049,58.417572 34.015625,58.071884 
z"/>
<path fill="#FEDBE2" opacity="1.000000" stroke="none" 
	d="
M41.763367,53.310783 
	C41.884628,53.644882 41.671627,53.844242 41.134785,53.946430 
	C40.985069,53.610264 41.191124,53.385860 41.763367,53.310783 
z"/>
<path fill="#FEDBE2" opacity="1.000000" stroke="none" 
	d="
M39.755077,54.248482 
	C39.884689,54.587879 39.667217,54.800323 39.114540,54.924938 
	C38.957710,54.585854 39.167263,54.347324 39.755077,54.248482 
z"/>
<path fill="#FEDBE2" opacity="1.000000" stroke="none" 
	d="
M37.766468,55.287952 
	C37.907455,55.601215 37.713810,55.811775 37.200851,55.957672 
	C37.020267,55.636566 37.203701,55.400646 37.766468,55.287952 
z"/>
<path fill="#FEDBE2" opacity="1.000000" stroke="none" 
	d="
M33.754456,58.102158 
	C33.932049,58.417572 33.733978,58.675236 33.178329,58.903408 
	C33.121254,58.685432 33.307270,58.408932 33.754456,58.102158 
z"/>
<path fill="#FEDBE2" opacity="1.000000" stroke="none" 
	d="
M32.701317,58.997879 
	C32.765690,59.227894 32.567944,59.521297 32.101593,59.869957 
	C32.035061,59.637238 32.237129,59.349255 32.701317,58.997879 
z"/>
<path fill="#FEDBE2" opacity="1.000000" stroke="none" 
	d="
M30.619999,60.863838 
	C30.700279,61.093231 30.516819,61.421143 30.049461,61.819649 
	C29.962461,61.580948 30.159359,61.271652 30.619999,60.863838 
z"/>
<path fill="#FEDBE2" opacity="1.000000" stroke="none" 
	d="
M28.712204,63.013546 
	C28.806103,63.214211 28.655609,63.505886 28.272417,63.899384 
	C28.182417,63.702328 28.325115,63.403439 28.712204,63.013546 
z"/>
<path fill="#F8F8F9" opacity="1.000000" stroke="none" 
	d="
M173.197571,88.128815 
	C173.167969,96.260033 166.133270,101.834496 158.606064,99.737419 
	C156.877121,99.255737 154.367126,97.013969 154.428070,95.683517 
	C154.533661,93.378319 155.787903,90.063797 157.588715,89.106010 
	C162.188705,86.659393 167.355255,85.277977 172.728012,83.312080 
	C172.954636,85.428116 173.075470,86.556313 173.197571,88.128815 
z"/>
<path fill="#F8F8F9" opacity="1.000000" stroke="none" 
	d="
M276.030518,72.830780 
	C284.835083,68.298225 290.966187,71.742416 291.899963,81.665817 
	C285.334442,81.665817 278.790405,81.665817 270.841492,81.665817 
	C272.664703,78.460312 274.194763,75.770210 276.030518,72.830780 
z"/>
</svg>